<?xml version="1.0" encoding="UTF-8" standalone="no"?>
<!DOCTYPE svg PUBLIC "-//W3C//DTD SVG 1.1//EN"
 "http://www.w3.org/Graphics/SVG/1.1/DTD/svg11.dtd">
<!-- Generated by graphviz version 2.43.0 (0)
 -->
<!-- Title: %3 Pages: 1 -->
<svg width="140pt" height="428pt"
 viewBox="0.00 0.00 140.00 428.00" xmlns="http://www.w3.org/2000/svg" xmlns:xlink="http://www.w3.org/1999/xlink">
<g id="graph0" class="graph" transform="scale(1 1) rotate(0) translate(4 424)">
<title>%3</title>
<polygon fill="white" stroke="transparent" points="-4,4 -4,-424 136,-424 136,4 -4,4"/>
<!-- conveyor_1 -->
<g id="node1" class="node">
<title>conveyor_1</title>
<polygon fill="none" stroke="black" points="114.5,-420 17.5,-420 17.5,-384 114.5,-384 114.5,-420"/>
<text text-anchor="middle" x="66" y="-398.3" font-family="Times,serif" font-size="14.00">conveyor_1</text>
</g>
<!-- conveyor_2 -->
<g id="node2" class="node">
<title>conveyor_2</title>
<polygon fill="none" stroke="black" points="114.5,-348 17.5,-348 17.5,-312 114.5,-312 114.5,-348"/>
<text text-anchor="middle" x="66" y="-326.3" font-family="Times,serif" font-size="14.00">conveyor_2</text>
</g>
<!-- conveyor_1&#45;&#45;conveyor_2 -->
<g id="edge1" class="edge">
<title>conveyor_1&#45;&#45;conveyor_2</title>
<path fill="none" stroke="black" d="M66,-383.7C66,-372.85 66,-358.92 66,-348.1"/>
</g>
<!-- grabadora_lazer -->
<g id="node3" class="node">
<title>grabadora_lazer</title>
<polygon fill="none" stroke="black" points="132,-276 0,-276 0,-144 132,-144 132,-276"/>
<text text-anchor="middle" x="66" y="-206.3" font-family="Times,serif" font-size="14.00">grabadora_lazer</text>
</g>
<!-- conveyor_2&#45;&#45;grabadora_lazer -->
<g id="edge2" class="edge">
<title>conveyor_2&#45;&#45;grabadora_lazer</title>
<path fill="none" stroke="black" d="M66,-311.84C66,-302.13 66,-289.29 66,-276.05"/>
</g>
<!-- conveyor_3 -->
<g id="node4" class="node">
<title>conveyor_3</title>
<polygon fill="none" stroke="black" points="114.5,-108 17.5,-108 17.5,-72 114.5,-72 114.5,-108"/>
<text text-anchor="middle" x="66" y="-86.3" font-family="Times,serif" font-size="14.00">conveyor_3</text>
</g>
<!-- grabadora_lazer&#45;&#45;conveyor_3 -->
<g id="edge3" class="edge">
<title>grabadora_lazer&#45;&#45;conveyor_3</title>
<path fill="none" stroke="black" d="M66,-143.79C66,-130.57 66,-117.77 66,-108.09"/>
</g>
<!-- conveyor_4 -->
<g id="node5" class="node">
<title>conveyor_4</title>
<polygon fill="none" stroke="black" points="114.5,-36 17.5,-36 17.5,0 114.5,0 114.5,-36"/>
<text text-anchor="middle" x="66" y="-14.3" font-family="Times,serif" font-size="14.00">conveyor_4</text>
</g>
<!-- conveyor_3&#45;&#45;conveyor_4 -->
<g id="edge4" class="edge">
<title>conveyor_3&#45;&#45;conveyor_4</title>
<path fill="none" stroke="black" d="M66,-71.7C66,-60.85 66,-46.92 66,-36.1"/>
</g>
</g>
</svg>
