<?xml version="1.0" encoding="UTF-8" standalone="no"?>
<!DOCTYPE svg PUBLIC "-//W3C//DTD SVG 1.1//EN"
 "http://www.w3.org/Graphics/SVG/1.1/DTD/svg11.dtd">
<!-- Generated by graphviz version 2.43.0 (0)
 -->
<!-- Title: %3 Pages: 1 -->
<svg width="344pt" height="896pt"
 viewBox="0.00 0.00 343.78 896.00" xmlns="http://www.w3.org/2000/svg" xmlns:xlink="http://www.w3.org/1999/xlink">
<g id="graph0" class="graph" transform="scale(1 1) rotate(0) translate(4 892)">
<title>%3</title>
<polygon fill="white" stroke="transparent" points="-4,4 -4,-892 339.78,-892 339.78,4 -4,4"/>
<!-- conveyor_1 -->
<g id="node1" class="node">
<title>conveyor_1</title>
<polygon fill="none" stroke="black" points="188.89,-888 91.89,-888 91.89,-852 188.89,-852 188.89,-888"/>
<text text-anchor="middle" x="140.39" y="-866.3" font-family="Times,serif" font-size="14.00">conveyor_1</text>
</g>
<!-- estacion_1 -->
<g id="node2" class="node">
<title>estacion_1</title>
<polygon fill="none" stroke="black" points="186.39,-816 94.39,-816 94.39,-724 186.39,-724 186.39,-816"/>
<text text-anchor="middle" x="140.39" y="-766.3" font-family="Times,serif" font-size="14.00">estacion_1</text>
</g>
<!-- conveyor_1&#45;&#45;estacion_1 -->
<g id="edge1" class="edge">
<title>conveyor_1&#45;&#45;estacion_1</title>
<path fill="none" stroke="black" d="M140.39,-851.93C140.39,-841.95 140.39,-828.84 140.39,-816.08"/>
</g>
<!-- conveyor_2 -->
<g id="node3" class="node">
<title>conveyor_2</title>
<polygon fill="none" stroke="black" points="188.89,-688 91.89,-688 91.89,-652 188.89,-652 188.89,-688"/>
<text text-anchor="middle" x="140.39" y="-666.3" font-family="Times,serif" font-size="14.00">conveyor_2</text>
</g>
<!-- estacion_1&#45;&#45;conveyor_2 -->
<g id="edge2" class="edge">
<title>estacion_1&#45;&#45;conveyor_2</title>
<path fill="none" stroke="black" d="M140.39,-723.73C140.39,-711.09 140.39,-698.12 140.39,-688.21"/>
</g>
<!-- tornamesa_1 -->
<g id="node4" class="node">
<title>tornamesa_1</title>
<polygon fill="none" stroke="black" points="140.39,-616 0.11,-581.5 280.66,-581.5 140.39,-616"/>
<text text-anchor="middle" x="140.39" y="-589.3" font-family="Times,serif" font-size="14.00">tornamesa_1</text>
</g>
<!-- conveyor_2&#45;&#45;tornamesa_1 -->
<g id="edge3" class="edge">
<title>conveyor_2&#45;&#45;tornamesa_1</title>
<path fill="none" stroke="black" d="M140.39,-651.98C140.39,-641.35 140.39,-627.55 140.39,-616.08"/>
</g>
<!-- rechazo_1 -->
<g id="node5" class="node">
<title>rechazo_1</title>
<polygon fill="none" stroke="black" points="129.39,-534 41.39,-534 41.39,-498 129.39,-498 129.39,-534"/>
<text text-anchor="middle" x="85.39" y="-512.3" font-family="Times,serif" font-size="14.00">rechazo_1</text>
</g>
<!-- tornamesa_1&#45;&#45;rechazo_1 -->
<g id="edge4" class="edge">
<title>tornamesa_1&#45;&#45;rechazo_1</title>
<path fill="none" stroke="black" d="M132.51,-581.25C123.48,-568.94 108.56,-548.6 97.93,-534.1"/>
</g>
<!-- conveyor_3 -->
<g id="node6" class="node">
<title>conveyor_3</title>
<polygon fill="none" stroke="black" points="243.89,-534 146.89,-534 146.89,-498 243.89,-498 243.89,-534"/>
<text text-anchor="middle" x="195.39" y="-512.3" font-family="Times,serif" font-size="14.00">conveyor_3</text>
</g>
<!-- tornamesa_1&#45;&#45;conveyor_3 -->
<g id="edge5" class="edge">
<title>tornamesa_1&#45;&#45;conveyor_3</title>
<path fill="none" stroke="black" d="M148.27,-581.25C157.3,-568.94 172.22,-548.6 182.85,-534.1"/>
</g>
<!-- rechazo_2 -->
<g id="node7" class="node">
<title>rechazo_2</title>
<polygon fill="none" stroke="black" points="129.39,-434 41.39,-434 41.39,-398 129.39,-398 129.39,-434"/>
<text text-anchor="middle" x="85.39" y="-412.3" font-family="Times,serif" font-size="14.00">rechazo_2</text>
</g>
<!-- rechazo_1&#45;&#45;rechazo_2 -->
<g id="edge6" class="edge">
<title>rechazo_1&#45;&#45;rechazo_2</title>
<path fill="none" stroke="black" d="M85.39,-497.93C85.39,-480.05 85.39,-452.13 85.39,-434.2"/>
</g>
<!-- estacion_2 -->
<g id="node9" class="node">
<title>estacion_2</title>
<polygon fill="none" stroke="black" points="241.39,-462 149.39,-462 149.39,-370 241.39,-370 241.39,-462"/>
<text text-anchor="middle" x="195.39" y="-412.3" font-family="Times,serif" font-size="14.00">estacion_2</text>
</g>
<!-- conveyor_3&#45;&#45;estacion_2 -->
<g id="edge8" class="edge">
<title>conveyor_3&#45;&#45;estacion_2</title>
<path fill="none" stroke="black" d="M195.39,-497.93C195.39,-487.95 195.39,-474.84 195.39,-462.08"/>
</g>
<!-- rechazo_3 -->
<g id="node8" class="node">
<title>rechazo_3</title>
<polygon fill="none" stroke="black" points="129.39,-334 41.39,-334 41.39,-298 129.39,-298 129.39,-334"/>
<text text-anchor="middle" x="85.39" y="-312.3" font-family="Times,serif" font-size="14.00">rechazo_3</text>
</g>
<!-- rechazo_2&#45;&#45;rechazo_3 -->
<g id="edge7" class="edge">
<title>rechazo_2&#45;&#45;rechazo_3</title>
<path fill="none" stroke="black" d="M85.39,-397.93C85.39,-380.05 85.39,-352.13 85.39,-334.2"/>
</g>
<!-- conveyor_4 -->
<g id="node10" class="node">
<title>conveyor_4</title>
<polygon fill="none" stroke="black" points="243.89,-334 146.89,-334 146.89,-298 243.89,-298 243.89,-334"/>
<text text-anchor="middle" x="195.39" y="-312.3" font-family="Times,serif" font-size="14.00">conveyor_4</text>
</g>
<!-- estacion_2&#45;&#45;conveyor_4 -->
<g id="edge9" class="edge">
<title>estacion_2&#45;&#45;conveyor_4</title>
<path fill="none" stroke="black" d="M195.39,-369.73C195.39,-357.09 195.39,-344.12 195.39,-334.21"/>
</g>
<!-- tornamesa_2 -->
<g id="node11" class="node">
<title>tornamesa_2</title>
<polygon fill="none" stroke="black" points="195.39,-262 55.11,-227.5 335.66,-227.5 195.39,-262"/>
<text text-anchor="middle" x="195.39" y="-235.3" font-family="Times,serif" font-size="14.00">tornamesa_2</text>
</g>
<!-- conveyor_4&#45;&#45;tornamesa_2 -->
<g id="edge10" class="edge">
<title>conveyor_4&#45;&#45;tornamesa_2</title>
<path fill="none" stroke="black" d="M195.39,-297.98C195.39,-287.35 195.39,-273.55 195.39,-262.08"/>
</g>
<!-- rechazo_4 -->
<g id="node12" class="node">
<title>rechazo_4</title>
<polygon fill="none" stroke="black" points="184.39,-180 96.39,-180 96.39,-144 184.39,-144 184.39,-180"/>
<text text-anchor="middle" x="140.39" y="-158.3" font-family="Times,serif" font-size="14.00">rechazo_4</text>
</g>
<!-- tornamesa_2&#45;&#45;rechazo_4 -->
<g id="edge11" class="edge">
<title>tornamesa_2&#45;&#45;rechazo_4</title>
<path fill="none" stroke="black" d="M187.51,-227.25C178.48,-214.94 163.56,-194.6 152.93,-180.1"/>
</g>
<!-- conveyor_5 -->
<g id="node13" class="node">
<title>conveyor_5</title>
<polygon fill="none" stroke="black" points="298.89,-180 201.89,-180 201.89,-144 298.89,-144 298.89,-180"/>
<text text-anchor="middle" x="250.39" y="-158.3" font-family="Times,serif" font-size="14.00">conveyor_5</text>
</g>
<!-- tornamesa_2&#45;&#45;conveyor_5 -->
<g id="edge12" class="edge">
<title>tornamesa_2&#45;&#45;conveyor_5</title>
<path fill="none" stroke="black" d="M203.27,-227.25C212.3,-214.94 227.22,-194.6 237.85,-180.1"/>
</g>
<!-- rechazo_5 -->
<g id="node16" class="node">
<title>rechazo_5</title>
<polygon fill="none" stroke="black" points="184.39,-108 96.39,-108 96.39,-72 184.39,-72 184.39,-108"/>
<text text-anchor="middle" x="140.39" y="-86.3" font-family="Times,serif" font-size="14.00">rechazo_5</text>
</g>
<!-- rechazo_4&#45;&#45;rechazo_5 -->
<g id="edge15" class="edge">
<title>rechazo_4&#45;&#45;rechazo_5</title>
<path fill="none" stroke="black" d="M140.39,-143.7C140.39,-132.85 140.39,-118.92 140.39,-108.1"/>
</g>
<!-- conveyor_6 -->
<g id="node14" class="node">
<title>conveyor_6</title>
<polygon fill="none" stroke="black" points="298.89,-108 201.89,-108 201.89,-72 298.89,-72 298.89,-108"/>
<text text-anchor="middle" x="250.39" y="-86.3" font-family="Times,serif" font-size="14.00">conveyor_6</text>
</g>
<!-- conveyor_5&#45;&#45;conveyor_6 -->
<g id="edge13" class="edge">
<title>conveyor_5&#45;&#45;conveyor_6</title>
<path fill="none" stroke="black" d="M250.39,-143.7C250.39,-132.85 250.39,-118.92 250.39,-108.1"/>
</g>
<!-- conveyor_7 -->
<g id="node15" class="node">
<title>conveyor_7</title>
<polygon fill="none" stroke="black" points="298.89,-36 201.89,-36 201.89,0 298.89,0 298.89,-36"/>
<text text-anchor="middle" x="250.39" y="-14.3" font-family="Times,serif" font-size="14.00">conveyor_7</text>
</g>
<!-- conveyor_6&#45;&#45;conveyor_7 -->
<g id="edge14" class="edge">
<title>conveyor_6&#45;&#45;conveyor_7</title>
<path fill="none" stroke="black" d="M250.39,-71.7C250.39,-60.85 250.39,-46.92 250.39,-36.1"/>
</g>
<!-- rechazo_6 -->
<g id="node17" class="node">
<title>rechazo_6</title>
<polygon fill="none" stroke="black" points="184.39,-36 96.39,-36 96.39,0 184.39,0 184.39,-36"/>
<text text-anchor="middle" x="140.39" y="-14.3" font-family="Times,serif" font-size="14.00">rechazo_6</text>
</g>
<!-- rechazo_5&#45;&#45;rechazo_6 -->
<g id="edge16" class="edge">
<title>rechazo_5&#45;&#45;rechazo_6</title>
<path fill="none" stroke="black" d="M140.39,-71.7C140.39,-60.85 140.39,-46.92 140.39,-36.1"/>
</g>
</g>
</svg>
