<?xml version="1.0" encoding="UTF-8" standalone="no"?>
<!DOCTYPE svg PUBLIC "-//W3C//DTD SVG 1.1//EN"
 "http://www.w3.org/Graphics/SVG/1.1/DTD/svg11.dtd">
<!-- Generated by graphviz version 2.43.0 (0)
 -->
<!-- Title: %3 Pages: 1 -->
<svg width="1196pt" height="863pt"
 viewBox="0.00 0.00 1196.00 862.59" xmlns="http://www.w3.org/2000/svg" xmlns:xlink="http://www.w3.org/1999/xlink">
<g id="graph0" class="graph" transform="scale(1 1) rotate(0) translate(4 858.59)">
<title>%3</title>
<polygon fill="white" stroke="transparent" points="-4,4 -4,-858.59 1192,-858.59 1192,4 -4,4"/>
<!-- conveyor_1 -->
<g id="node1" class="node">
<title>conveyor_1</title>
<polygon fill="none" stroke="black" points="444.5,-854.59 347.5,-854.59 347.5,-818.59 444.5,-818.59 444.5,-854.59"/>
<text text-anchor="middle" x="396" y="-832.89" font-family="Times,serif" font-size="14.00">conveyor_1</text>
</g>
<!-- conveyor_2 -->
<g id="node2" class="node">
<title>conveyor_2</title>
<polygon fill="none" stroke="black" points="444.5,-782.59 347.5,-782.59 347.5,-746.59 444.5,-746.59 444.5,-782.59"/>
<text text-anchor="middle" x="396" y="-760.89" font-family="Times,serif" font-size="14.00">conveyor_2</text>
</g>
<!-- conveyor_1&#45;&#45;conveyor_2 -->
<g id="edge1" class="edge">
<title>conveyor_1&#45;&#45;conveyor_2</title>
<path fill="none" stroke="black" d="M396,-818.28C396,-807.43 396,-793.5 396,-782.69"/>
</g>
<!-- conveyor_3 -->
<g id="node3" class="node">
<title>conveyor_3</title>
<polygon fill="none" stroke="black" points="444.5,-710.59 347.5,-710.59 347.5,-674.59 444.5,-674.59 444.5,-710.59"/>
<text text-anchor="middle" x="396" y="-688.89" font-family="Times,serif" font-size="14.00">conveyor_3</text>
</g>
<!-- conveyor_2&#45;&#45;conveyor_3 -->
<g id="edge2" class="edge">
<title>conveyor_2&#45;&#45;conveyor_3</title>
<path fill="none" stroke="black" d="M396,-746.28C396,-735.43 396,-721.5 396,-710.69"/>
</g>
<!-- conveyor_4 -->
<g id="node4" class="node">
<title>conveyor_4</title>
<polygon fill="none" stroke="black" points="444.5,-638.59 347.5,-638.59 347.5,-602.59 444.5,-602.59 444.5,-638.59"/>
<text text-anchor="middle" x="396" y="-616.89" font-family="Times,serif" font-size="14.00">conveyor_4</text>
</g>
<!-- conveyor_3&#45;&#45;conveyor_4 -->
<g id="edge3" class="edge">
<title>conveyor_3&#45;&#45;conveyor_4</title>
<path fill="none" stroke="black" d="M396,-674.28C396,-663.43 396,-649.5 396,-638.69"/>
</g>
<!-- brazo_robotico -->
<g id="node5" class="node">
<title>brazo_robotico</title>
<ellipse fill="none" stroke="black" cx="396" cy="-487.29" rx="79.09" ry="79.09"/>
<text text-anchor="middle" x="396" y="-483.59" font-family="Times,serif" font-size="14.00">brazo_robotico</text>
</g>
<!-- conveyor_4&#45;&#45;brazo_robotico -->
<g id="edge4" class="edge">
<title>conveyor_4&#45;&#45;brazo_robotico</title>
<path fill="none" stroke="black" d="M396,-602.42C396,-592.83 396,-580.12 396,-566.66"/>
</g>
<!-- estacion_pruebas_1 -->
<g id="node6" class="node">
<title>estacion_pruebas_1</title>
<polygon fill="none" stroke="black" points="156,-372 0,-372 0,-216 156,-216 156,-372"/>
<text text-anchor="middle" x="78" y="-290.3" font-family="Times,serif" font-size="14.00">estacion_pruebas_1</text>
</g>
<!-- brazo_robotico&#45;&#45;estacion_pruebas_1 -->
<g id="edge5" class="edge">
<title>brazo_robotico&#45;&#45;estacion_pruebas_1</title>
<path fill="none" stroke="black" d="M321.71,-458.91C272.75,-438.12 208.42,-407.2 156.31,-372.21"/>
</g>
<!-- conveyor_cuatro_cilindros_1 -->
<g id="node7" class="node">
<title>conveyor_cuatro_cilindros_1</title>
<polygon fill="none" stroke="black" points="392,-312 174,-312 174,-276 392,-276 392,-312"/>
<text text-anchor="middle" x="283" y="-290.3" font-family="Times,serif" font-size="14.00">conveyor_cuatro_cilindros_1</text>
</g>
<!-- brazo_robotico&#45;&#45;conveyor_cuatro_cilindros_1 -->
<g id="edge6" class="edge">
<title>brazo_robotico&#45;&#45;conveyor_cuatro_cilindros_1</title>
<path fill="none" stroke="black" d="M356,-418.58C333.53,-380.53 307.23,-336.02 293.14,-312.17"/>
</g>
<!-- conveyor_seis_cilindros_1 -->
<g id="node8" class="node">
<title>conveyor_seis_cilindros_1</title>
<polygon fill="none" stroke="black" points="610,-312 410,-312 410,-276 610,-276 610,-312"/>
<text text-anchor="middle" x="510" y="-290.3" font-family="Times,serif" font-size="14.00">conveyor_seis_cilindros_1</text>
</g>
<!-- brazo_robotico&#45;&#45;conveyor_seis_cilindros_1 -->
<g id="edge7" class="edge">
<title>brazo_robotico&#45;&#45;conveyor_seis_cilindros_1</title>
<path fill="none" stroke="black" d="M436.19,-418.85C458.88,-380.77 485.48,-336.14 499.73,-312.22"/>
</g>
<!-- conveyor_rechazo_cuatro_cilindros_1 -->
<g id="node9" class="node">
<title>conveyor_rechazo_cuatro_cilindros_1</title>
<polygon fill="none" stroke="black" points="908,-312 628,-312 628,-276 908,-276 908,-312"/>
<text text-anchor="middle" x="768" y="-290.3" font-family="Times,serif" font-size="14.00">conveyor_rechazo_cuatro_cilindros_1</text>
</g>
<!-- brazo_robotico&#45;&#45;conveyor_rechazo_cuatro_cilindros_1 -->
<g id="edge8" class="edge">
<title>brazo_robotico&#45;&#45;conveyor_rechazo_cuatro_cilindros_1</title>
<path fill="none" stroke="black" d="M466.34,-450.32C510.25,-427.84 567.94,-398.28 619,-372 659,-351.41 704.99,-327.63 735.17,-312.01"/>
</g>
<!-- conveyor_rechazo_seis_cilindros_1 -->
<g id="node10" class="node">
<title>conveyor_rechazo_seis_cilindros_1</title>
<polygon fill="none" stroke="black" points="1188,-312 926,-312 926,-276 1188,-276 1188,-312"/>
<text text-anchor="middle" x="1057" y="-290.3" font-family="Times,serif" font-size="14.00">conveyor_rechazo_seis_cilindros_1</text>
</g>
<!-- brazo_robotico&#45;&#45;conveyor_rechazo_seis_cilindros_1 -->
<g id="edge9" class="edge">
<title>brazo_robotico&#45;&#45;conveyor_rechazo_seis_cilindros_1</title>
<path fill="none" stroke="black" d="M474.8,-476.2C578.61,-461.29 765.73,-428.83 917,-372 959.07,-356.2 1003.96,-329.56 1031.25,-312.13"/>
</g>
<!-- estacion_pruebas_1&#45;&#45;brazo_robotico -->
<g id="edge10" class="edge">
<title>estacion_pruebas_1&#45;&#45;brazo_robotico</title>
<path fill="none" stroke="black" d="M156.45,-359.27C162.26,-363.76 168.14,-368.06 174,-372 221.62,-404.02 279.5,-432.64 324.28,-453.24"/>
</g>
<!-- conveyor_cuatro_cilindros_2 -->
<g id="node11" class="node">
<title>conveyor_cuatro_cilindros_2</title>
<polygon fill="none" stroke="black" points="392,-180 174,-180 174,-144 392,-144 392,-180"/>
<text text-anchor="middle" x="283" y="-158.3" font-family="Times,serif" font-size="14.00">conveyor_cuatro_cilindros_2</text>
</g>
<!-- conveyor_cuatro_cilindros_1&#45;&#45;conveyor_cuatro_cilindros_2 -->
<g id="edge11" class="edge">
<title>conveyor_cuatro_cilindros_1&#45;&#45;conveyor_cuatro_cilindros_2</title>
<path fill="none" stroke="black" d="M283,-275.74C283,-250.87 283,-205.24 283,-180.33"/>
</g>
<!-- conveyor_seis_cilindros_2 -->
<g id="node14" class="node">
<title>conveyor_seis_cilindros_2</title>
<polygon fill="none" stroke="black" points="610,-180 410,-180 410,-144 610,-144 610,-180"/>
<text text-anchor="middle" x="510" y="-158.3" font-family="Times,serif" font-size="14.00">conveyor_seis_cilindros_2</text>
</g>
<!-- conveyor_seis_cilindros_1&#45;&#45;conveyor_seis_cilindros_2 -->
<g id="edge14" class="edge">
<title>conveyor_seis_cilindros_1&#45;&#45;conveyor_seis_cilindros_2</title>
<path fill="none" stroke="black" d="M510,-275.74C510,-250.87 510,-205.24 510,-180.33"/>
</g>
<!-- conveyor_rechazo_cuatro_cilindros_2 -->
<g id="node17" class="node">
<title>conveyor_rechazo_cuatro_cilindros_2</title>
<polygon fill="none" stroke="black" points="908,-180 628,-180 628,-144 908,-144 908,-180"/>
<text text-anchor="middle" x="768" y="-158.3" font-family="Times,serif" font-size="14.00">conveyor_rechazo_cuatro_cilindros_2</text>
</g>
<!-- conveyor_rechazo_cuatro_cilindros_1&#45;&#45;conveyor_rechazo_cuatro_cilindros_2 -->
<g id="edge17" class="edge">
<title>conveyor_rechazo_cuatro_cilindros_1&#45;&#45;conveyor_rechazo_cuatro_cilindros_2</title>
<path fill="none" stroke="black" d="M768,-275.74C768,-250.87 768,-205.24 768,-180.33"/>
</g>
<!-- conveyor_rechazo_seis_cilindros_2 -->
<g id="node20" class="node">
<title>conveyor_rechazo_seis_cilindros_2</title>
<polygon fill="none" stroke="black" points="1188,-180 926,-180 926,-144 1188,-144 1188,-180"/>
<text text-anchor="middle" x="1057" y="-158.3" font-family="Times,serif" font-size="14.00">conveyor_rechazo_seis_cilindros_2</text>
</g>
<!-- conveyor_rechazo_seis_cilindros_1&#45;&#45;conveyor_rechazo_seis_cilindros_2 -->
<g id="edge20" class="edge">
<title>conveyor_rechazo_seis_cilindros_1&#45;&#45;conveyor_rechazo_seis_cilindros_2</title>
<path fill="none" stroke="black" d="M1057,-275.74C1057,-250.87 1057,-205.24 1057,-180.33"/>
</g>
<!-- conveyor_cuatro_cilindros_3 -->
<g id="node12" class="node">
<title>conveyor_cuatro_cilindros_3</title>
<polygon fill="none" stroke="black" points="392,-108 174,-108 174,-72 392,-72 392,-108"/>
<text text-anchor="middle" x="283" y="-86.3" font-family="Times,serif" font-size="14.00">conveyor_cuatro_cilindros_3</text>
</g>
<!-- conveyor_cuatro_cilindros_2&#45;&#45;conveyor_cuatro_cilindros_3 -->
<g id="edge12" class="edge">
<title>conveyor_cuatro_cilindros_2&#45;&#45;conveyor_cuatro_cilindros_3</title>
<path fill="none" stroke="black" d="M283,-143.7C283,-132.85 283,-118.92 283,-108.1"/>
</g>
<!-- conveyor_cuatro_cilindros_4 -->
<g id="node13" class="node">
<title>conveyor_cuatro_cilindros_4</title>
<polygon fill="none" stroke="black" points="392,-36 174,-36 174,0 392,0 392,-36"/>
<text text-anchor="middle" x="283" y="-14.3" font-family="Times,serif" font-size="14.00">conveyor_cuatro_cilindros_4</text>
</g>
<!-- conveyor_cuatro_cilindros_3&#45;&#45;conveyor_cuatro_cilindros_4 -->
<g id="edge13" class="edge">
<title>conveyor_cuatro_cilindros_3&#45;&#45;conveyor_cuatro_cilindros_4</title>
<path fill="none" stroke="black" d="M283,-71.7C283,-60.85 283,-46.92 283,-36.1"/>
</g>
<!-- conveyor_seis_cilindros_3 -->
<g id="node15" class="node">
<title>conveyor_seis_cilindros_3</title>
<polygon fill="none" stroke="black" points="610,-108 410,-108 410,-72 610,-72 610,-108"/>
<text text-anchor="middle" x="510" y="-86.3" font-family="Times,serif" font-size="14.00">conveyor_seis_cilindros_3</text>
</g>
<!-- conveyor_seis_cilindros_2&#45;&#45;conveyor_seis_cilindros_3 -->
<g id="edge15" class="edge">
<title>conveyor_seis_cilindros_2&#45;&#45;conveyor_seis_cilindros_3</title>
<path fill="none" stroke="black" d="M510,-143.7C510,-132.85 510,-118.92 510,-108.1"/>
</g>
<!-- conveyor_seis_cilindros_4 -->
<g id="node16" class="node">
<title>conveyor_seis_cilindros_4</title>
<polygon fill="none" stroke="black" points="610,-36 410,-36 410,0 610,0 610,-36"/>
<text text-anchor="middle" x="510" y="-14.3" font-family="Times,serif" font-size="14.00">conveyor_seis_cilindros_4</text>
</g>
<!-- conveyor_seis_cilindros_3&#45;&#45;conveyor_seis_cilindros_4 -->
<g id="edge16" class="edge">
<title>conveyor_seis_cilindros_3&#45;&#45;conveyor_seis_cilindros_4</title>
<path fill="none" stroke="black" d="M510,-71.7C510,-60.85 510,-46.92 510,-36.1"/>
</g>
<!-- conveyor_rechazo_cuatro_cilindros_3 -->
<g id="node18" class="node">
<title>conveyor_rechazo_cuatro_cilindros_3</title>
<polygon fill="none" stroke="black" points="908,-108 628,-108 628,-72 908,-72 908,-108"/>
<text text-anchor="middle" x="768" y="-86.3" font-family="Times,serif" font-size="14.00">conveyor_rechazo_cuatro_cilindros_3</text>
</g>
<!-- conveyor_rechazo_cuatro_cilindros_2&#45;&#45;conveyor_rechazo_cuatro_cilindros_3 -->
<g id="edge18" class="edge">
<title>conveyor_rechazo_cuatro_cilindros_2&#45;&#45;conveyor_rechazo_cuatro_cilindros_3</title>
<path fill="none" stroke="black" d="M768,-143.7C768,-132.85 768,-118.92 768,-108.1"/>
</g>
<!-- conveyor_rechazo_cuatro_cilindros_4 -->
<g id="node19" class="node">
<title>conveyor_rechazo_cuatro_cilindros_4</title>
<polygon fill="none" stroke="black" points="908,-36 628,-36 628,0 908,0 908,-36"/>
<text text-anchor="middle" x="768" y="-14.3" font-family="Times,serif" font-size="14.00">conveyor_rechazo_cuatro_cilindros_4</text>
</g>
<!-- conveyor_rechazo_cuatro_cilindros_3&#45;&#45;conveyor_rechazo_cuatro_cilindros_4 -->
<g id="edge19" class="edge">
<title>conveyor_rechazo_cuatro_cilindros_3&#45;&#45;conveyor_rechazo_cuatro_cilindros_4</title>
<path fill="none" stroke="black" d="M768,-71.7C768,-60.85 768,-46.92 768,-36.1"/>
</g>
<!-- conveyor_rechazo_seis_cilindros_3 -->
<g id="node21" class="node">
<title>conveyor_rechazo_seis_cilindros_3</title>
<polygon fill="none" stroke="black" points="1188,-108 926,-108 926,-72 1188,-72 1188,-108"/>
<text text-anchor="middle" x="1057" y="-86.3" font-family="Times,serif" font-size="14.00">conveyor_rechazo_seis_cilindros_3</text>
</g>
<!-- conveyor_rechazo_seis_cilindros_2&#45;&#45;conveyor_rechazo_seis_cilindros_3 -->
<g id="edge21" class="edge">
<title>conveyor_rechazo_seis_cilindros_2&#45;&#45;conveyor_rechazo_seis_cilindros_3</title>
<path fill="none" stroke="black" d="M1057,-143.7C1057,-132.85 1057,-118.92 1057,-108.1"/>
</g>
<!-- conveyor_rechazo_seis_cilindros_4 -->
<g id="node22" class="node">
<title>conveyor_rechazo_seis_cilindros_4</title>
<polygon fill="none" stroke="black" points="1188,-36 926,-36 926,0 1188,0 1188,-36"/>
<text text-anchor="middle" x="1057" y="-14.3" font-family="Times,serif" font-size="14.00">conveyor_rechazo_seis_cilindros_4</text>
</g>
<!-- conveyor_rechazo_seis_cilindros_3&#45;&#45;conveyor_rechazo_seis_cilindros_4 -->
<g id="edge22" class="edge">
<title>conveyor_rechazo_seis_cilindros_3&#45;&#45;conveyor_rechazo_seis_cilindros_4</title>
<path fill="none" stroke="black" d="M1057,-71.7C1057,-60.85 1057,-46.92 1057,-36.1"/>
</g>
</g>
</svg>
